STARTFONT 2.1
COMMENT Exported by Fony v1.4.7
FONT 17X25TG
SIZE 25 96 96
FONTBOUNDINGBOX 17 24 0 -5
STARTPROPERTIES 6
COPYRIGHT "Tangar @ http://tangar.info for TomeNET @ http://tomenet.eu"
RESOLUTION_X 96
RESOLUTION_Y 96
FONT_ASCENT 20
FONT_DESCENT 5
DEFAULT_CHAR 31
ENDPROPERTIES
CHARS 256
STARTCHAR 000
ENCODING 0
SWIDTH 1224 0
DWIDTH 17 0
BBX 17 25 0 -5
BITMAP
800000
400080
400080
200100
100200
080400
000000
000000
040800
021000
012000
00C000
00C000
004000
00C000
012000
011000
040800
040000
000000
080400
100200
200100
200080
400080
ENDCHAR
STARTCHAR 001
ENCODING 1
SWIDTH 1224 0
DWIDTH 17 0
BBX 15 1 1 -2
BITMAP
8912
ENDCHAR
STARTCHAR 002
ENCODING 2
SWIDTH 1224 0
DWIDTH 17 0
BBX 17 25 0 -5
BITMAP
FFFF80
FFFF80
FFFF80
FFFF80
FFFF80
FFFF80
FFFF80
FFFF80
FFFF80
FFFF80
FFFF80
FFFF80
FFFF80
FFFF80
FFFF80
FFFF80
FFFF80
FFFF80
FFFF80
FFFF80
FFFF80
FFFF80
FFFF80
FFFF80
FFFF80
ENDCHAR
STARTCHAR 003
ENCODING 3
SWIDTH 1224 0
DWIDTH 17 0
BBX 15 1 1 -1
BITMAP
DB36
ENDCHAR
STARTCHAR 004
ENCODING 4
SWIDTH 1224 0
DWIDTH 17 0
BBX 4 4 7 -3
BITMAP
60
D0
F0
60
ENDCHAR
STARTCHAR 005
ENCODING 5
SWIDTH 1224 0
DWIDTH 17 0
BBX 16 3 1 -1
BITMAP
9249
0000
4444
ENDCHAR
STARTCHAR 006
ENCODING 6
SWIDTH 1224 0
DWIDTH 17 0
BBX 17 6 0 -1
BITMAP
041000
0A2800
041000
208280
014000
888800
ENDCHAR
STARTCHAR 007
ENCODING 7
SWIDTH 1224 0
DWIDTH 17 0
BBX 16 1 1 0
BITMAP
EEEF
ENDCHAR
STARTCHAR 008
ENCODING 8
SWIDTH 1224 0
DWIDTH 17 0
BBX 17 3 0 6
BITMAP
222200
555500
888880
ENDCHAR
STARTCHAR 009
ENCODING 9
SWIDTH 1224 0
DWIDTH 17 0
BBX 6 4 6 5
BITMAP
84
CC
78
30
ENDCHAR
STARTCHAR 010
ENCODING 10
SWIDTH 1224 0
DWIDTH 17 0
BBX 17 23 0 -5
BITMAP
FF1F80
FFBF80
FFBF80
FF1F80
000000
000000
F1FF80
FBFF80
FBFF80
FBFF80
F1FF80
000000
000000
FF1F80
FFBF80
FFBF80
FF1F80
000000
000000
F1FF80
FBFF80
FBFF80
FBFF80
ENDCHAR
STARTCHAR 011
ENCODING 11
SWIDTH 1224 0
DWIDTH 17 0
BBX 17 23 0 -5
BITMAP
FFBF80
FFBF80
FFBF80
FFBF80
000000
000000
FBFF80
FBFF80
FBFF80
FBFF80
FBFF80
000000
000000
FFBF80
FFBF80
FFBF80
FFBF80
000000
000000
FBFF80
FBFF80
FBFF80
FBFF80
ENDCHAR
STARTCHAR 012
ENCODING 12
SWIDTH 1224 0
DWIDTH 17 0
BBX 17 23 0 -5
BITMAP
FFBF80
FFBF80
FFB780
FFBF80
000000
000000
FBFF80
CBFF80
CBFF80
FBFF80
FBFF80
000000
000000
FFBF80
FFB780
FFBF80
FFBF80
000000
000000
CBFF80
CBFF80
FBFF80
FBFF80
ENDCHAR
STARTCHAR 013
ENCODING 13
SWIDTH 1224 0
DWIDTH 17 0
BBX 17 25 0 -5
BITMAP
FFFF80
7DF780
7DF780
380780
3BF780
C40800
E80580
E80580
6C0D80
2FFD80
2FFD80
87F800
CBF400
EC0D80
6C0D80
67F980
37FB80
83F000
C1E000
F80780
FFFF80
7DF780
38E300
BAEB00
C71C80
ENDCHAR
STARTCHAR 014
ENCODING 14
SWIDTH 1224 0
DWIDTH 17 0
BBX 17 25 0 -5
BITMAP
001000
003800
003800
007800
087C00
18EC00
1C9E00
1D9E00
35FE00
2F7F00
6E7F00
7DBF80
7DFC80
FBEF80
F36780
F77780
E7B600
87B800
07F800
0FF800
0FFC00
3FFE00
3FFE00
7FFF00
FFFF80
ENDCHAR
STARTCHAR 015
ENCODING 15
SWIDTH 1224 0
DWIDTH 17 0
BBX 17 23 0 -5
BITMAP
038000
07C000
05E000
0F7000
1F7000
1FF800
3FF800
7F9800
7F8800
FF7000
FCF800
CBBC00
FBBC00
FFFE00
36FE00
0FFF00
0FFF00
1FFF00
1FFF80
3FFB80
7FFF80
7FFF80
7FFF80
ENDCHAR
STARTCHAR 016
ENCODING 16
SWIDTH 1224 0
DWIDTH 17 0
BBX 17 25 0 -5
BITMAP
FFFF80
FFFF80
C26980
FFFF80
C9A180
FFFF80
E68780
FFFF80
DA1B80
FFFF80
E86980
FFFF80
E1A180
FFFF80
C68180
FFFF80
DA0380
FFFF80
E80980
FFFF80
E02180
FFFF80
C08180
FFFF80
FFFF80
ENDCHAR
STARTCHAR 017
ENCODING 17
SWIDTH 1224 0
DWIDTH 17 0
BBX 17 25 0 -5
BITMAP
FFFF80
FFFF80
C26980
C4D180
C9A180
D34380
E68780
CD0D80
DA1B80
F43580
E86980
D0D180
E1A180
C34180
C68180
CD0180
DA0380
F40580
E80980
D01180
E02180
C04180
C08180
FFFF80
FFFF80
ENDCHAR
STARTCHAR 018
ENCODING 18
SWIDTH 1224 0
DWIDTH 17 0
BBX 17 25 0 -5
BITMAP
FFFF80
FFFF80
C30180
C70180
CB0180
D30180
E70180
CF0180
DB0180
F70180
EB0180
D30180
E30180
C30180
C70180
CF0180
DB0180
F70180
EB0180
D30180
E30180
C30180
C30180
FFFF80
FFFF80
ENDCHAR
STARTCHAR 019
ENCODING 19
SWIDTH 1224 0
DWIDTH 17 0
BBX 17 25 0 -5
BITMAP
FFFF80
FFFF80
C4C980
FFFF80
D32580
FFFF80
CC9380
FFFF80
FFFF80
FFFF80
C00180
FFFF80
C1C980
FFFF80
DBD980
FFFF80
CBCD80
FFFF80
CFD180
FFFF80
C3E180
FFFF80
C1C180
FFFF80
FFFF80
ENDCHAR
STARTCHAR 020
ENCODING 20
SWIDTH 1224 0
DWIDTH 17 0
BBX 17 25 0 -5
BITMAP
FFFF80
FFFF80
C4C980
C99380
D32580
E64980
CC9380
D92580
FFFF80
FFFF80
C00180
C08180
C1C980
C9ED80
DBD980
CDE980
CBCD80
D9F980
CFD180
C5C180
C3E180
C3E180
C1C180
FFFF80
FFFF80
ENDCHAR
STARTCHAR 021
ENCODING 21
SWIDTH 1224 0
DWIDTH 17 0
BBX 17 25 0 -5
BITMAP
FFFF80
FFFF80
C70180
CB0180
D30180
E70180
CF0180
DB0180
FFFF80
FFFF80
C00180
C08180
C1C980
C9ED80
DBD980
CDE980
CBCD80
D9F980
CFD180
C5C180
C3E180
C3E180
C1C180
FFFF80
FFFF80
ENDCHAR
STARTCHAR 022
ENCODING 22
SWIDTH 1224 0
DWIDTH 17 0
BBX 17 25 0 -5
BITMAP
800000
400080
400080
200100
100200
080400
000000
000000
040800
021000
012000
00C000
00C000
004000
00C000
012000
011000
040800
040000
000000
080400
100200
200100
200080
400080
ENDCHAR
STARTCHAR 023
ENCODING 23
SWIDTH 1224 0
DWIDTH 17 0
BBX 17 25 0 -5
BITMAP
800000
400080
400080
200100
100200
080400
000000
000000
040800
021000
012000
00C000
00C000
004000
00C000
012000
011000
040800
040000
000000
080400
100200
200100
200080
400080
ENDCHAR
STARTCHAR 024
ENCODING 24
SWIDTH 1224 0
DWIDTH 17 0
BBX 17 25 0 -5
BITMAP
800000
400080
400080
200100
100200
080400
000000
000000
040800
021000
012000
00C000
00C000
004000
00C000
012000
011000
040800
040000
000000
080400
100200
200100
200080
400080
ENDCHAR
STARTCHAR 025
ENCODING 25
SWIDTH 1224 0
DWIDTH 17 0
BBX 17 25 0 -5
BITMAP
800000
400080
400080
200100
100200
080400
000000
000000
040800
021000
012000
00C000
00C000
004000
00C000
012000
011000
040800
040000
000000
080400
100200
200100
200080
400080
ENDCHAR
STARTCHAR 026
ENCODING 26
SWIDTH 1224 0
DWIDTH 17 0
BBX 17 25 0 -5
BITMAP
800000
400080
400080
200100
100200
080400
000000
000000
040800
021000
012000
00C000
00C000
004000
00C000
012000
011000
040800
040000
000000
080400
100200
200100
200080
400080
ENDCHAR
STARTCHAR 027
ENCODING 27
SWIDTH 1224 0
DWIDTH 17 0
BBX 17 25 0 -5
BITMAP
800000
400080
400080
200100
100200
080400
000000
000000
040800
021000
012000
00C000
00C000
004000
00C000
012000
011000
040800
040000
000000
080400
100200
200100
200080
400080
ENDCHAR
STARTCHAR 028
ENCODING 28
SWIDTH 1224 0
DWIDTH 17 0
BBX 17 25 0 -5
BITMAP
800000
400080
400080
200100
100200
080400
000000
000000
040800
021000
012000
00C000
00C000
004000
00C000
012000
011000
040800
040000
000000
080400
100200
200100
200080
400080
ENDCHAR
STARTCHAR 029
ENCODING 29
SWIDTH 1224 0
DWIDTH 17 0
BBX 17 25 0 -5
BITMAP
800000
400080
400080
200100
100200
080400
000000
000000
040800
021000
012000
00C000
00C000
004000
00C000
012000
011000
040800
040000
000000
080400
100200
200100
200080
400080
ENDCHAR
STARTCHAR 030
ENCODING 30
SWIDTH 1224 0
DWIDTH 17 0
BBX 17 25 0 -5
BITMAP
800000
400080
400080
200100
100200
080400
000000
000000
040800
021000
012000
00C000
00C000
004000
00C000
012000
011000
040800
040000
000000
080400
100200
200100
200080
400080
ENDCHAR
STARTCHAR 031
ENCODING 31
SWIDTH 1224 0
DWIDTH 17 0
BBX 17 25 0 -5
BITMAP
800000
400080
400080
200100
100200
080400
000000
000000
040800
021000
012000
00C000
00C000
004000
00C000
012000
011000
040800
040000
000000
080400
100200
200100
200080
400080
ENDCHAR
STARTCHAR 032
ENCODING 32
SWIDTH 1224 0
DWIDTH 17 0
BBX 0 0 0 0
BITMAP
ENDCHAR
STARTCHAR 033
ENCODING 33
SWIDTH 1224 0
DWIDTH 17 0
BBX 6 19 6 -2
BITMAP
30
78
7C
FC
EC
EC
FC
FC
FC
FC
F8
F8
70
70
00
00
20
70
20
ENDCHAR
STARTCHAR 034
ENCODING 34
SWIDTH 1224 0
DWIDTH 17 0
BBX 8 5 5 10
BITMAP
F7
F7
F7
F7
C1
ENDCHAR
STARTCHAR 035
ENCODING 35
SWIDTH 1224 0
DWIDTH 17 0
BBX 12 12 3 1
BITMAP
39C0
39C0
FFF0
FFF0
FFF0
39C0
39C0
FFF0
FFF0
FFF0
39C0
39C0
ENDCHAR
STARTCHAR 036
ENCODING 36
SWIDTH 1224 0
DWIDTH 17 0
BBX 12 23 3 -5
BITMAP
0180
0380
0380
1FC0
3FE0
3B70
7330
6330
7300
3F00
3F00
07C0
0660
0670
0630
C630
E670
7EE0
3FC0
0F00
0C00
0C00
0C00
ENDCHAR
STARTCHAR 037
ENCODING 37
SWIDTH 1224 0
DWIDTH 17 0
BBX 15 16 2 -1
BITMAP
3020
7820
CC60
CCE0
CDC0
79C0
3180
0180
033C
0666
0666
0E66
1C3C
1818
1800
3000
ENDCHAR
STARTCHAR 038
ENCODING 38
SWIDTH 1224 0
DWIDTH 17 0
BBX 13 16 3 -1
BITMAP
0F80
1FC0
3040
3040
31C0
1B80
1F00
1E00
3318
6398
C1F8
C1F0
E070
7FF8
3FF8
3F18
ENDCHAR
STARTCHAR 039
ENCODING 39
SWIDTH 1224 0
DWIDTH 17 0
BBX 4 8 7 7
BITMAP
F0
F0
F0
F0
20
60
40
C0
ENDCHAR
STARTCHAR 040
ENCODING 40
SWIDTH 1224 0
DWIDTH 17 0
BBX 6 20 7 -3
BITMAP
04
0C
18
30
30
60
E0
C0
C0
C0
C0
C0
C0
E0
60
30
30
18
0C
04
ENDCHAR
STARTCHAR 041
ENCODING 41
SWIDTH 1224 0
DWIDTH 17 0
BBX 6 20 5 -3
BITMAP
80
C0
60
30
30
18
1C
0C
0C
0C
0C
0C
0C
1C
18
30
30
60
C0
80
ENDCHAR
STARTCHAR 042
ENCODING 42
SWIDTH 1224 0
DWIDTH 17 0
BBX 9 10 4 2
BITMAP
0800
C980
6B00
7F00
3E00
FF80
3E00
7F00
6B80
C880
ENDCHAR
STARTCHAR 043
ENCODING 43
SWIDTH 1224 0
DWIDTH 17 0
BBX 14 14 2 0
BITMAP
0780
0780
0780
0780
0780
FFFC
FFFC
FFFC
FFFC
0780
0780
0780
0780
0780
ENDCHAR
STARTCHAR 044
ENCODING 44
SWIDTH 1224 0
DWIDTH 17 0
BBX 6 8 5 -5
BITMAP
38
7C
7C
7C
18
30
70
C0
ENDCHAR
STARTCHAR 045
ENCODING 45
SWIDTH 1224 0
DWIDTH 17 0
BBX 13 3 3 5
BITMAP
FFF8
FFF8
FFF8
ENDCHAR
STARTCHAR 046
ENCODING 46
SWIDTH 1224 0
DWIDTH 17 0
BBX 4 4 7 5
BITMAP
60
F0
F0
60
ENDCHAR
STARTCHAR 047
ENCODING 47
SWIDTH 1224 0
DWIDTH 17 0
BBX 9 17 4 -1
BITMAP
0080
0180
0380
0380
0380
0700
0600
0E00
0C00
1C00
3800
3800
7000
6000
E000
C000
C000
ENDCHAR
STARTCHAR 048
ENCODING 48
SWIDTH 1224 0
DWIDTH 17 0
BBX 10 16 4 -1
BITMAP
0F80
1F80
3FC0
79C0
70C0
70C0
61C0
61C0
E380
C380
C380
C780
E700
7E00
7C00
7800
ENDCHAR
STARTCHAR 049
ENCODING 49
SWIDTH 1224 0
DWIDTH 17 0
BBX 8 17 5 -1
BITMAP
02
06
0E
1E
3E
7E
0C
0C
0C
1C
1C
1C
1C
1C
3C
7E
FF
ENDCHAR
STARTCHAR 050
ENCODING 50
SWIDTH 1224 0
DWIDTH 17 0
BBX 11 17 3 -1
BITMAP
07C0
1FE0
3C60
3860
3060
2060
00E0
00C0
01C0
0380
0700
0E00
1C00
3860
FFE0
FFE0
FFE0
ENDCHAR
STARTCHAR 051
ENCODING 51
SWIDTH 1224 0
DWIDTH 17 0
BBX 10 16 3 -1
BITMAP
0FC0
1FC0
39C0
31C0
00C0
01C0
03C0
0780
03C0
00C0
0040
8040
E3C0
7FC0
3F80
3E00
ENDCHAR
STARTCHAR 052
ENCODING 52
SWIDTH 1224 0
DWIDTH 17 0
BBX 8 16 5 -1
BITMAP
60
61
E1
E3
C3
C7
FF
FF
07
06
0E
0E
0E
0C
0C
0C
ENDCHAR
STARTCHAR 053
ENCODING 53
SWIDTH 1224 0
DWIDTH 17 0
BBX 12 16 3 -1
BITMAP
0FE0
0FF0
1C00
1C00
3800
3C00
3F00
3F80
01C0
00C0
00C0
C0C0
E380
7F80
3F00
1C00
ENDCHAR
STARTCHAR 054
ENCODING 54
SWIDTH 1224 0
DWIDTH 17 0
BBX 9 16 4 -1
BITMAP
0F00
3F80
7180
7080
C000
C000
CE00
DF00
F380
E180
C080
C080
E380
7F80
7F00
3C00
ENDCHAR
STARTCHAR 055
ENCODING 55
SWIDTH 1224 0
DWIDTH 17 0
BBX 12 16 3 -1
BITMAP
3FF0
7FE0
C0E0
C0C0
01C0
01C0
0380
0380
0700
0600
0E00
0C00
1C00
3C00
3C00
3C00
ENDCHAR
STARTCHAR 056
ENCODING 56
SWIDTH 1224 0
DWIDTH 17 0
BBX 10 16 3 -1
BITMAP
0FC0
1FC0
38C0
38C0
38C0
3FC0
1F80
1F00
3F80
73C0
E1C0
E1C0
E3C0
7F80
3F00
1C00
ENDCHAR
STARTCHAR 057
ENCODING 57
SWIDTH 1224 0
DWIDTH 17 0
BBX 11 16 3 -1
BITMAP
03C0
0FC0
1FE0
3CE0
3860
3860
3CE0
3FE0
0FE0
01C0
01C0
03C0
C380
C700
FE00
7C00
ENDCHAR
STARTCHAR 058
ENCODING 58
SWIDTH 1224 0
DWIDTH 17 0
BBX 5 11 7 -2
BITMAP
20
70
F8
70
20
00
20
70
F8
70
20
ENDCHAR
STARTCHAR 059
ENCODING 59
SWIDTH 1224 0
DWIDTH 17 0
BBX 6 14 6 -5
BITMAP
10
38
7C
38
10
00
10
38
7C
38
10
30
60
C0
ENDCHAR
STARTCHAR 060
ENCODING 60
SWIDTH 1224 0
DWIDTH 17 0
BBX 17 22 0 -4
BITMAP
000380
000380
000380
003B80
003B80
03BB80
03BB80
1BBB80
1BBB80
9BBB80
9BBB80
9BBB80
9BBB80
1BBB80
1BBB80
03BB80
03BB80
003B80
003B80
000380
000380
000380
ENDCHAR
STARTCHAR 061
ENCODING 61
SWIDTH 1224 0
DWIDTH 17 0
BBX 13 8 3 2
BITMAP
FFF8
FFF8
FFF8
0000
0000
0000
FFF8
FFF8
ENDCHAR
STARTCHAR 062
ENCODING 62
SWIDTH 1224 0
DWIDTH 17 0
BBX 16 22 1 -4
BITMAP
E000
E000
E000
EE00
EE00
EEE0
EEE0
EEEC
EEEC
EEED
EEED
EEED
EEEC
EEEC
EEEC
EEE0
EEE0
EE00
EE00
E000
E000
E000
ENDCHAR
STARTCHAR 063
ENCODING 63
SWIDTH 1224 0
DWIDTH 17 0
BBX 10 19 4 -3
BITMAP
1F00
7F80
7180
E0C0
C0C0
0040
00C0
0180
0380
0700
0E00
1C00
1800
0000
0000
1800
3C00
3C00
1800
ENDCHAR
STARTCHAR 064
ENCODING 64
SWIDTH 1224 0
DWIDTH 17 0
BBX 13 23 3 -5
BITMAP
0700
0F80
0F80
0F80
0700
0200
0F80
3FE0
7FF0
7FF0
EFB8
CFB8
CF98
DFD8
1FC0
1DC0
1DC0
3DC0
38C0
38C0
38C0
38E0
7070
ENDCHAR
STARTCHAR 065
ENCODING 65
SWIDTH 1224 0
DWIDTH 17 0
BBX 15 18 2 -1
BITMAP
1E00
3F00
7FC0
67E0
47E0
0EE0
0E70
1C30
1C30
1838
1838
3FF8
3FFC
3FFC
701C
701C
F01E
F01E
ENDCHAR
STARTCHAR 066
ENCODING 66
SWIDTH 1224 0
DWIDTH 17 0
BBX 12 16 3 -1
BITMAP
FF80
7FC0
71C0
70C0
70C0
71C0
7FC0
7FE0
7070
7030
7030
7030
7FE0
7FC0
7FC0
7F00
ENDCHAR
STARTCHAR 067
ENCODING 67
SWIDTH 1224 0
DWIDTH 17 0
BBX 14 17 2 -1
BITMAP
07E0
1FF8
3FF8
7E1C
7C1C
F018
E020
E000
E000
E000
E000
E000
F008
7C38
3FF0
1FE0
0FC0
ENDCHAR
STARTCHAR 068
ENCODING 68
SWIDTH 1224 0
DWIDTH 17 0
BBX 15 17 2 -1
BITMAP
FFC0
7FF0
7FF8
603C
601C
601E
601E
601E
601E
601E
601E
601E
601E
603C
7FFC
7FF8
FFF0
ENDCHAR
STARTCHAR 069
ENCODING 69
SWIDTH 1224 0
DWIDTH 17 0
BBX 11 19 3 -2
BITMAP
0020
FFE0
7FE0
7FE0
6000
6000
6000
6000
7E00
7E00
7E00
6000
6000
6000
6000
7FE0
7FE0
7FE0
0020
ENDCHAR
STARTCHAR 070
ENCODING 70
SWIDTH 1224 0
DWIDTH 17 0
BBX 12 17 4 -1
BITMAP
FFF0
FFF0
FFF0
E030
E000
E000
E000
FC00
FE00
FF80
E000
E000
E000
E000
E000
E000
E000
ENDCHAR
STARTCHAR 071
ENCODING 71
SWIDTH 1224 0
DWIDTH 17 0
BBX 15 18 2 -1
BITMAP
07E0
1FF0
3FFC
3E1C
781E
781E
7000
E000
E000
E000
E0FC
E1FE
E1DE
700E
7E1C
3FFC
3FFC
1FF8
ENDCHAR
STARTCHAR 072
ENCODING 72
SWIDTH 1224 0
DWIDTH 17 0
BBX 14 17 2 -1
BITMAP
F03C
7038
7038
7038
7038
7038
7038
7FF8
7FF8
7038
7038
7038
7038
7038
7038
7038
7038
ENDCHAR
STARTCHAR 073
ENCODING 73
SWIDTH 1224 0
DWIDTH 17 0
BBX 8 17 5 -1
BITMAP
FF
FF
18
18
18
18
18
18
18
18
18
18
18
18
FF
FF
FF
ENDCHAR
STARTCHAR 074
ENCODING 74
SWIDTH 1224 0
DWIDTH 17 0
BBX 14 18 2 -1
BITMAP
007C
007C
0038
0038
0038
0038
0038
0038
0038
0038
0038
F038
F038
6038
7078
38F8
3FF0
1FE0
ENDCHAR
STARTCHAR 075
ENCODING 75
SWIDTH 1224 0
DWIDTH 17 0
BBX 16 18 1 -1
BITMAP
0018
3C3C
FC76
38F2
30E0
30E0
3180
3380
3700
3F00
3F00
3F80
33C1
31C3
30F7
30FE
387E
787C
ENDCHAR
STARTCHAR 076
ENCODING 76
SWIDTH 1224 0
DWIDTH 17 0
BBX 12 17 2 -1
BITMAP
F800
3800
3800
3800
3800
3800
3800
3800
3800
3800
3800
3800
3800
3810
3FF0
3FF0
3FF0
ENDCHAR
STARTCHAR 077
ENCODING 77
SWIDTH 1224 0
DWIDTH 17 0
BBX 16 17 0 -1
BITMAP
100E
180E
180E
1C0E
1C1E
3E17
3F37
3737
3377
3177
71E7
70E7
70E7
70C7
7007
F80F
F80F
ENDCHAR
STARTCHAR 078
ENCODING 78
SWIDTH 1224 0
DWIDTH 17 0
BBX 15 18 1 -2
BITMAP
0006
601C
701C
781C
7C1C
6E1C
661C
661C
631C
6198
61D8
61F8
60F8
6078
6038
6038
6038
C000
ENDCHAR
STARTCHAR 079
ENCODING 79
SWIDTH 1224 0
DWIDTH 17 0
BBX 15 16 1 -1
BITMAP
0FC0
1FE0
3FF0
7FF8
F81C
F00E
F20E
E20E
E00E
E00E
E00E
601C
3838
1FF0
1FE0
07C0
ENDCHAR
STARTCHAR 080
ENCODING 80
SWIDTH 1224 0
DWIDTH 17 0
BBX 13 17 2 -1
BITMAP
FFC0
3FE0
3030
3018
3018
3018
3038
3FF0
3FE0
3000
3000
3000
3000
3000
3000
3000
7000
ENDCHAR
STARTCHAR 081
ENCODING 81
SWIDTH 1224 0
DWIDTH 17 0
BBX 16 20 1 -3
BITMAP
0FC0
3FE0
7FF0
7FF8
F878
F03C
E00C
E00E
C006
C006
C006
C0C6
C0C6
E0C6
70FC
3838
1FFC
0FFC
0007
0001
ENDCHAR
STARTCHAR 082
ENCODING 82
SWIDTH 1224 0
DWIDTH 17 0
BBX 15 18 1 -1
BITMAP
FF80
7FC0
7FE0
60E0
6070
6030
6070
60E0
7FE0
7FC0
6380
61C0
61E0
60E0
6072
707E
783E
F81C
ENDCHAR
STARTCHAR 083
ENCODING 83
SWIDTH 1224 0
DWIDTH 17 0
BBX 15 17 1 -1
BITMAP
01E0
0FF8
1E3C
181C
380E
3000
3800
1FC0
1FE0
0038
001C
001C
E01C
381C
1FF8
1FF0
07E0
ENDCHAR
STARTCHAR 084
ENCODING 84
SWIDTH 1224 0
DWIDTH 17 0
BBX 15 18 1 -1
BITMAP
8002
FFFE
FFFE
FFFE
07C0
07C0
07C0
07C0
07C0
07C0
07C0
07C0
07C0
07C0
07C0
07C0
07C0
0FE0
ENDCHAR
STARTCHAR 085
ENCODING 85
SWIDTH 1224 0
DWIDTH 17 0
BBX 13 17 2 -1
BITMAP
F078
E038
E038
E038
E038
E038
E038
E038
E038
E038
E038
E038
E038
7070
7FF0
3FE0
3FC0
ENDCHAR
STARTCHAR 086
ENCODING 86
SWIDTH 1224 0
DWIDTH 17 0
BBX 15 17 1 -1
BITMAP
FC3E
F01E
601E
601C
601C
3018
3018
3030
3030
1860
18E0
1CE0
1CE0
0FC0
0F80
0780
0700
ENDCHAR
STARTCHAR 087
ENCODING 87
SWIDTH 1224 0
DWIDTH 17 0
BBX 13 16 2 -1
BITMAP
C018
C018
C018
C018
C018
C018
C018
C218
C718
CF98
CD98
D8D8
F078
F078
E038
E038
ENDCHAR
STARTCHAR 088
ENCODING 88
SWIDTH 1224 0
DWIDTH 17 0
BBX 15 19 1 -1
BITMAP
F00E
F00E
701C
3838
1C70
0C70
0EE0
07C0
07C0
07C0
07C0
0EE0
0EF0
1C70
1830
3018
700C
F00E
F00E
ENDCHAR
STARTCHAR 089
ENCODING 89
SWIDTH 1224 0
DWIDTH 17 0
BBX 15 19 2 -1
BITMAP
E00E
E00E
601C
3018
3038
1830
1860
0C60
0EC0
07C0
0780
0300
0300
0300
0300
0300
0300
0300
0FC0
ENDCHAR
STARTCHAR 090
ENCODING 90
SWIDTH 1224 0
DWIDTH 17 0
BBX 15 17 2 -1
BITMAP
2000
FFFC
FFFC
0078
0070
00E0
01E0
01C0
0380
0700
0E00
1E00
1C00
7806
FFFC
FFFC
FFF8
ENDCHAR
STARTCHAR 091
ENCODING 91
SWIDTH 1224 0
DWIDTH 17 0
BBX 7 21 6 -4
BITMAP
FE
FE
FE
E0
E0
E0
E0
E0
E0
E0
E0
E0
E0
E0
E0
E0
E0
FE
FE
FE
FE
ENDCHAR
STARTCHAR 092
ENCODING 92
SWIDTH 1224 0
DWIDTH 17 0
BBX 9 17 4 -1
BITMAP
C000
C000
6000
6000
6000
3800
1800
1800
1C00
0C00
0600
0700
0700
0380
0180
0180
0080
ENDCHAR
STARTCHAR 093
ENCODING 93
SWIDTH 1224 0
DWIDTH 17 0
BBX 8 21 5 -4
BITMAP
FF
FF
FF
07
07
07
77
77
77
07
07
07
07
07
07
07
07
FF
FF
FF
FF
ENDCHAR
STARTCHAR 094
ENCODING 94
SWIDTH 1224 0
DWIDTH 17 0
BBX 13 10 2 6
BITMAP
0200
0700
0700
0F80
1FC0
3FC0
3DE0
78F0
7070
E038
ENDCHAR
STARTCHAR 095
ENCODING 95
SWIDTH 1224 0
DWIDTH 17 0
BBX 17 4 0 -4
BITMAP
FFFF80
FFFF80
FFFF80
FFFF80
ENDCHAR
STARTCHAR 096
ENCODING 96
SWIDTH 1224 0
DWIDTH 17 0
BBX 5 7 7 8
BITMAP
F0
F0
F0
60
60
70
38
ENDCHAR
STARTCHAR 097
ENCODING 97
SWIDTH 1224 0
DWIDTH 17 0
BBX 11 11 3 -1
BITMAP
3C80
7F80
7F80
C380
C380
C380
C380
E7E0
7FE0
7DC0
3880
ENDCHAR
STARTCHAR 098
ENCODING 98
SWIDTH 1224 0
DWIDTH 17 0
BBX 12 18 3 -1
BITMAP
1800
3800
3800
F800
3800
3800
3800
3800
3BC0
3FC0
3C60
3C30
3C30
3830
3C70
3FE0
3FE0
3FC0
ENDCHAR
STARTCHAR 099
ENCODING 99
SWIDTH 1224 0
DWIDTH 17 0
BBX 9 12 5 -1
BITMAP
1E00
7F00
FF80
F080
C000
C000
C000
C000
E080
FF80
FF00
7F00
ENDCHAR
STARTCHAR 100
ENCODING 100
SWIDTH 1224 0
DWIDTH 17 0
BBX 12 19 3 -1
BITMAP
0080
00C0
00E0
00C0
00C0
00C0
00C0
00C0
1CC0
3FC0
3FC0
61C0
C0C0
C0C0
C0C0
C1C0
FFF0
7F70
3E20
ENDCHAR
STARTCHAR 101
ENCODING 101
SWIDTH 1224 0
DWIDTH 17 0
BBX 10 12 4 -1
BITMAP
1F00
3F80
7880
7080
FF80
FF00
FC00
E000
F040
7FC0
7F80
1F00
ENDCHAR
STARTCHAR 102
ENCODING 102
SWIDTH 1224 0
DWIDTH 17 0
BBX 10 17 4 -1
BITMAP
0780
0F80
0C80
0C00
0C00
0C00
0C00
0C40
0C40
FF80
8C00
8C00
0C00
0C00
0C00
0C00
1E00
ENDCHAR
STARTCHAR 103
ENCODING 103
SWIDTH 1224 0
DWIDTH 17 0
BBX 10 17 4 -5
BITMAP
0E00
3FC0
7180
6180
6180
7380
7F80
3F00
1E00
1F80
7B00
7300
E300
8600
8C00
D800
7000
ENDCHAR
STARTCHAR 104
ENCODING 104
SWIDTH 1224 0
DWIDTH 17 0
BBX 12 16 4 -1
BITMAP
4000
C000
4000
4000
4000
4000
4000
4000
4E00
5F00
7F00
7700
4300
4310
43B0
43F0
ENDCHAR
STARTCHAR 105
ENCODING 105
SWIDTH 1224 0
DWIDTH 17 0
BBX 6 15 6 -1
BITMAP
30
30
00
00
70
70
70
30
30
30
30
30
30
78
FC
ENDCHAR
STARTCHAR 106
ENCODING 106
SWIDTH 1224 0
DWIDTH 17 0
BBX 10 20 4 -5
BITMAP
00C0
00C0
00C0
0000
0000
0000
0000
0080
0080
0080
0080
0080
0080
0080
8080
8080
C380
6780
7F00
3C00
ENDCHAR
STARTCHAR 107
ENCODING 107
SWIDTH 1224 0
DWIDTH 17 0
BBX 12 16 3 -3
BITMAP
2000
6000
6000
60E0
61E0
63E0
6600
7C00
7800
7C00
6780
6390
61D0
60F0
C000
8000
ENDCHAR
STARTCHAR 108
ENCODING 108
SWIDTH 1224 0
DWIDTH 17 0
BBX 9 18 4 -1
BITMAP
0700
0F80
0C80
0880
1080
1180
3300
3700
6E00
7C00
7000
F000
E000
E100
6700
6E00
7C00
3800
ENDCHAR
STARTCHAR 109
ENCODING 109
SWIDTH 1224 0
DWIDTH 17 0
BBX 14 12 2 -1
BITMAP
1E78
3EF8
7FFC
77DC
E11C
E11C
E11C
E01C
C018
C038
C030
C020
ENDCHAR
STARTCHAR 110
ENCODING 110
SWIDTH 1224 0
DWIDTH 17 0
BBX 14 12 2 -1
BITMAP
3000
7F80
FFC0
FFC0
31C0
31C0
31C0
31C0
31CC
30FC
707C
F838
ENDCHAR
STARTCHAR 111
ENCODING 111
SWIDTH 1224 0
DWIDTH 17 0
BBX 10 11 4 -1
BITMAP
1F00
7F80
7180
C0C0
C040
C240
C240
60C0
7F80
7F80
1F00
ENDCHAR
STARTCHAR 112
ENCODING 112
SWIDTH 1224 0
DWIDTH 17 0
BBX 9 14 4 -4
BITMAP
FF00
FF00
FF80
C080
C080
C180
FF80
FF00
C000
C000
C000
C000
C000
8000
ENDCHAR
STARTCHAR 113
ENCODING 113
SWIDTH 1224 0
DWIDTH 17 0
BBX 12 15 4 -5
BITMAP
3C80
7F80
7F80
E180
C080
C080
C180
7F80
7E80
3C80
0080
0090
00B0
00E0
00E0
ENDCHAR
STARTCHAR 114
ENCODING 114
SWIDTH 1224 0
DWIDTH 17 0
BBX 10 12 5 -1
BITMAP
3000
3000
3E00
3F00
71C0
7000
7000
7000
F000
E000
E000
E000
ENDCHAR
STARTCHAR 115
ENCODING 115
SWIDTH 1224 0
DWIDTH 17 0
BBX 8 13 5 -1
BITMAP
3E
7F
F3
E1
70
38
1C
0E
03
03
87
FE
78
ENDCHAR
STARTCHAR 116
ENCODING 116
SWIDTH 1224 0
DWIDTH 17 0
BBX 10 16 3 -1
BITMAP
0C00
0C00
0C00
0C00
FC00
7FC0
0FC0
0FC0
0C00
0C00
0C00
0C00
0C00
0FC0
0FC0
0FC0
ENDCHAR
STARTCHAR 117
ENCODING 117
SWIDTH 1224 0
DWIDTH 17 0
BBX 10 11 4 -1
BITMAP
C0C0
C0C0
C0C0
C0C0
C0C0
C0C0
C0C0
E180
FF80
7F00
3F00
ENDCHAR
STARTCHAR 118
ENCODING 118
SWIDTH 1224 0
DWIDTH 17 0
BBX 15 12 1 -1
BITMAP
F81E
701C
2018
3018
1830
1820
1C20
0C60
06C0
03C0
0380
0180
ENDCHAR
STARTCHAR 119
ENCODING 119
SWIDTH 1224 0
DWIDTH 17 0
BBX 16 11 0 -1
BITMAP
F003
7007
3007
3806
188C
19CC
0BEC
0F78
0F30
0E30
0410
ENDCHAR
STARTCHAR 120
ENCODING 120
SWIDTH 1224 0
DWIDTH 17 0
BBX 11 12 3 -1
BITMAP
C060
60C0
31C0
3B80
1F00
0E00
0E00
1F00
3B80
31C0
60C0
C060
ENDCHAR
STARTCHAR 121
ENCODING 121
SWIDTH 1224 0
DWIDTH 17 0
BBX 12 15 3 -5
BITMAP
C030
6060
6060
30C0
38C0
18C0
1DC0
0F80
0700
0700
0600
0C00
5C00
7800
7000
ENDCHAR
STARTCHAR 122
ENCODING 122
SWIDTH 1224 0
DWIDTH 17 0
BBX 11 12 3 -1
BITMAP
FFE0
FFE0
00E0
01C0
0780
0700
0E00
1C00
3800
7FE0
FFE0
FFE0
ENDCHAR
STARTCHAR 123
ENCODING 123
SWIDTH 1224 0
DWIDTH 17 0
BBX 8 20 5 -4
BITMAP
0F
08
08
08
08
08
08
08
18
F0
70
10
18
08
08
08
08
08
08
0F
ENDCHAR
STARTCHAR 124
ENCODING 124
SWIDTH 1224 0
DWIDTH 17 0
BBX 1 20 9 -4
BITMAP
80
80
80
80
80
80
80
80
80
80
80
80
80
80
80
80
80
80
80
80
ENDCHAR
STARTCHAR 125
ENCODING 125
SWIDTH 1224 0
DWIDTH 17 0
BBX 9 21 4 -5
BITMAP
F800
3800
1800
0C00
0C00
0400
0400
0400
0600
0380
0700
0600
0400
0400
0400
0400
0C00
1800
1800
7800
F800
ENDCHAR
STARTCHAR 126
ENCODING 126
SWIDTH 1224 0
DWIDTH 17 0
BBX 14 11 2 -1
BITMAP
1E0C
3F1C
7FB8
E0F0
0060
0E00
1F1C
7FF8
E1F0
C0E0
8000
ENDCHAR
STARTCHAR 127
ENCODING 127
SWIDTH 1224 0
DWIDTH 17 0
BBX 17 25 0 -5
BITMAP
FFFF80
FFFF80
FFFF80
FFFF80
FFFF80
FFFF80
FFFF80
FFFF80
FFFF80
FFFF80
FFFF80
FFFF80
FFFF80
FFFF80
FFFF80
FFFF80
FFFF80
FFFF80
FFFF80
FFFF80
FFFF80
FFFF80
FFFF80
FFFF80
FFFF80
ENDCHAR
STARTCHAR 128
ENCODING 128
SWIDTH 1224 0
DWIDTH 17 0
BBX 17 23 0 -5
BITMAP
FFFF80
FFFF80
F80F80
E00380
C7F980
C00180
81E080
89E800
280A00
29EA00
280A00
A94A00
294800
294800
294E00
294800
294800
294A00
294A00
A94A00
A94A00
294A00
294A00
ENDCHAR
STARTCHAR 129
ENCODING 129
SWIDTH 1224 0
DWIDTH 17 0
BBX 6 22 1 -5
BITMAP
F0
F0
B0
B0
F0
F0
F0
F0
F0
F0
FC
FC
FC
F0
F0
F0
F0
F0
B0
B0
F0
F0
ENDCHAR
STARTCHAR 130
ENCODING 130
SWIDTH 1224 0
DWIDTH 17 0
BBX 15 17 2 -1
BITMAP
FC7E
F01E
E01E
E01E
E01E
E01E
E01E
E01E
E01E
E01E
E01E
E01E
E01E
783C
7FFC
3FF8
1FF0
ENDCHAR
STARTCHAR 131
ENCODING 131
SWIDTH 1224 0
DWIDTH 17 0
BBX 13 23 2 -4
BITMAP
0700
0F80
0A80
0F80
0A80
0D80
0700
0200
1F80
3FC0
3FE0
7FF0
CFB8
8F88
0700
0F80
1FC0
0200
0200
0200
0200
0200
0200
ENDCHAR
STARTCHAR 132
ENCODING 132
SWIDTH 1224 0
DWIDTH 17 0
BBX 13 14 2 0
BITMAP
0200
0200
0A80
2AA0
2AA0
2AA0
EAB8
2AA0
2AA0
2AA0
2AA0
0A80
0200
0200
ENDCHAR
STARTCHAR 133
ENCODING 133
SWIDTH 1224 0
DWIDTH 17 0
BBX 14 21 2 -5
BITMAP
0340
0BC0
7EF0
76F0
1FEC
F330
3FF0
DFEC
DF3C
33EC
F3FC
1FF0
9FE4
6ED8
2FD0
3FF0
0B40
0300
0300
0300
0300
ENDCHAR
STARTCHAR 134
ENCODING 134
SWIDTH 1224 0
DWIDTH 17 0
BBX 14 17 2 -5
BITMAP
0800
02A0
1548
0800
2D20
73D0
7EF0
3EF4
0FE8
D330
3F2C
3FEC
DDF0
37B0
1340
0300
0300
ENDCHAR
STARTCHAR 135
ENCODING 135
SWIDTH 1224 0
DWIDTH 17 0
BBX 14 21 2 -5
BITMAP
0300
1DC0
27D0
273C
1324
C9C0
4D08
33D8
4E60
19D8
11F0
E320
0E10
73C0
13F0
1300
0200
0300
0300
0300
0300
ENDCHAR
STARTCHAR 136
ENCODING 136
SWIDTH 1224 0
DWIDTH 17 0
BBX 17 25 0 -5
BITMAP
044180
044100
188700
D88600
DB3800
3B4400
048300
048300
F4B880
0B4400
0B4400
0B4400
C48B00
3A4080
3A4000
C63380
08B600
334800
334800
C44B80
C44B80
0BB400
0BB600
364A80
344B80
ENDCHAR
STARTCHAR 137
ENCODING 137
SWIDTH 1224 0
DWIDTH 17 0
BBX 16 25 1 -5
BITMAP
8000
8100
4000
8200
2204
9908
8500
0400
80D0
8800
4040
8800
A088
8A01
9102
9204
0448
2840
8080
4009
9206
A864
5204
A402
5000
ENDCHAR
STARTCHAR 138
ENCODING 138
SWIDTH 1224 0
DWIDTH 17 0
BBX 17 4 0 6
BITMAP
222200
222200
777700
CCCC80
ENDCHAR
STARTCHAR 139
ENCODING 139
SWIDTH 1224 0
DWIDTH 17 0
BBX 16 24 1 -5
BITMAP
0820
0000
2004
0000
8121
0800
0000
1248
0000
4E70
1FE8
37FD
73CE
6186
4102
0080
8100
0080
0F78
3086
4003
6007
7FFF
3FFE
ENDCHAR
STARTCHAR 140
ENCODING 140
SWIDTH 1224 0
DWIDTH 17 0
BBX 17 16 0 -5
BITMAP
001E00
003E00
03F200
07E300
3C7D00
7E7500
57E780
60C380
CC7F00
C77C80
CFFA80
D18A00
6E0D00
DF0500
DF8D00
0F7700
ENDCHAR
STARTCHAR 141
ENCODING 141
SWIDTH 1224 0
DWIDTH 17 0
BBX 16 24 1 -5
BITMAP
0A80
0A80
1681
1783
1F82
0A86
0F86
0F0C
150C
171C
1218
3F58
7FB0
7FFC
FF30
FF40
FFE0
FF40
FFC0
FFC0
FFC0
FFC0
AA80
AA80
ENDCHAR
STARTCHAR 142
ENCODING 142
SWIDTH 1224 0
DWIDTH 17 0
BBX 16 20 1 -4
BITMAP
01C0
07F0
0FF8
3FFE
3FFC
CFF3
F7F7
F1CF
FC1F
FF7F
FF7F
FF7F
FF7F
FF7F
7F7F
7F7E
3F7C
0F78
0770
0340
ENDCHAR
STARTCHAR 143
ENCODING 143
SWIDTH 1224 0
DWIDTH 17 0
BBX 17 25 0 -5
BITMAP
800000
400080
400080
200100
100200
080400
000000
000000
040800
021000
012000
00C000
00C000
004000
00C000
012000
011000
040800
040000
000000
080400
100200
200100
200080
400080
ENDCHAR
STARTCHAR 144
ENCODING 144
SWIDTH 1224 0
DWIDTH 17 0
BBX 17 25 0 -5
BITMAP
800000
400080
400080
200100
100200
080400
000000
000000
040800
021000
012000
00C000
00C000
004000
00C000
012000
011000
040800
040000
000000
080400
100200
200100
200080
400080
ENDCHAR
STARTCHAR 145
ENCODING 145
SWIDTH 1224 0
DWIDTH 17 0
BBX 17 25 0 -5
BITMAP
BDF680
F7DF80
FBF780
5FF980
FF6980
B7FE80
FEDF80
7FFF80
FFFE80
7FEF80
FE7B80
FE7F00
7FBF80
FDFF80
FFFD80
DFE780
7EE780
FFBD80
6EFF80
FFFF80
FFB580
7B7B80
FFBA80
FFFF80
DDEF80
ENDCHAR
STARTCHAR 146
ENCODING 146
SWIDTH 1224 0
DWIDTH 17 0
BBX 17 25 0 -5
BITMAP
FFFF80
7DF780
7DF780
38E780
38E780
C71800
FFFF80
FFFF80
7DF780
38E780
38E780
820800
C71800
FFFF80
7DF780
7DF780
38E780
820800
C71800
FFFF80
FFFF80
7DF780
38E780
38E780
820800
ENDCHAR
STARTCHAR 147
ENCODING 147
SWIDTH 1224 0
DWIDTH 17 0
BBX 13 18 3 -3
BITMAP
0200
0200
0700
0F00
1780
16C0
2940
0900
7FF0
FFF0
8B58
EEA8
1A60
2E80
1740
0A80
0200
0200
ENDCHAR
STARTCHAR 148
ENCODING 148
SWIDTH 1224 0
DWIDTH 17 0
BBX 17 24 0 -5
BITMAP
3D9F00
7F3F80
5E9F80
6F3F80
000000
000000
787F00
FCFF80
FCFF80
FEBD80
3C7F00
000000
67BD00
FFBF80
FF3F00
FF9F00
BC9A80
000000
000000
3E7E80
7F3F00
3F7F80
7F3F00
2E6280
ENDCHAR
STARTCHAR 149
ENCODING 149
SWIDTH 1224 0
DWIDTH 17 0
BBX 17 25 0 -5
BITMAP
FDFF80
7DF780
8FED80
AE1D80
FDB280
73F780
0BF580
743380
F5D780
AECF00
5F7180
F9BE00
FBBE80
F77E00
FEF780
755780
8BED80
F7C880
7E7F00
84F700
72FE00
FE5380
AFB700
D5F300
F5FC80
ENDCHAR
STARTCHAR 150
ENCODING 150
SWIDTH 1224 0
DWIDTH 17 0
BBX 17 24 0 -5
BITMAP
3D9F00
633580
5A9F80
6F3700
000000
000000
787F00
FCBA80
DCDA80
EEBD80
3C7F00
000000
67BD00
DEBF80
EB2300
DC9E00
BC9A80
000000
000000
3E7E80
6B3B00
1D6D80
6B3D00
5E6280
ENDCHAR
STARTCHAR 151
ENCODING 151
SWIDTH 1224 0
DWIDTH 17 0
BBX 16 13 1 1
BITMAP
0002
0004
1C0B
6F9C
FFDB
BFF6
F3FC
CCF2
9E7C
3301
6107
80FC
00F0
ENDCHAR
STARTCHAR 152
ENCODING 152
SWIDTH 1224 0
DWIDTH 17 0
BBX 17 18 0 -2
BITMAP
000080
000180
000380
000780
000F00
001E00
003C00
007800
00F000
01E000
33C000
378000
0F0000
0E0000
1E0000
318000
E00000
C00000
ENDCHAR
STARTCHAR 153
ENCODING 153
SWIDTH 1224 0
DWIDTH 17 0
BBX 14 24 1 -5
BITMAP
E000
F000
7800
3800
1F80
1FE0
1FF0
1FF0
1C78
1C18
1C18
1C70
1FF0
1FF8
1C0C
1C0C
1C0C
1C1C
0FF8
17F0
1B80
3E00
7C00
F800
ENDCHAR
STARTCHAR 154
ENCODING 154
SWIDTH 1224 0
DWIDTH 17 0
BBX 15 18 2 -2
BITMAP
0004
07FC
1FFC
1FF4
3FFC
7E7C
7E2C
F014
F800
E000
E000
E000
E000
FEDE
7FDE
7FB8
3FE0
1FE0
ENDCHAR
STARTCHAR 155
ENCODING 155
SWIDTH 1224 0
DWIDTH 17 0
BBX 17 20 0 -5
BITMAP
0FF000
0FF800
0FFC00
0FFE00
0F0F00
0F0780
0F0780
1F0780
7B0780
FB0780
7B0780
3F0780
0F0780
0F0780
0F0780
0F0F00
0FFE00
0FFC00
0FF800
0FF000
ENDCHAR
STARTCHAR 156
ENCODING 156
SWIDTH 1224 0
DWIDTH 17 0
BBX 17 20 0 -5
BITMAP
FFF800
7FFE00
3BFF00
1B1F00
0F0780
0F0780
0F0780
0F0780
0F0780
0F0780
0F0780
0F0780
0F0780
0F0780
0F0780
0F0780
1B1F00
3FFF00
7FFE00
FFF800
ENDCHAR
STARTCHAR 157
ENCODING 157
SWIDTH 1224 0
DWIDTH 17 0
BBX 17 25 0 -5
BITMAP
800000
400080
400080
200100
100200
080400
000000
000000
040800
021000
012000
00C000
00C000
004000
00C000
012000
011000
040800
040000
000000
080400
100200
200100
200080
400080
ENDCHAR
STARTCHAR 158
ENCODING 158
SWIDTH 1224 0
DWIDTH 17 0
BBX 11 24 3 -4
BITMAP
0600
0400
0400
0C00
0C00
1800
1800
3000
3020
7FE0
7FC0
C0C0
80C0
0180
0380
0300
0300
0600
0400
0C00
2C00
3800
3C00
3E00
ENDCHAR
STARTCHAR 159
ENCODING 159
SWIDTH 1224 0
DWIDTH 17 0
BBX 17 20 0 -2
BITMAP
006000
60C000
718200
1B8200
1B0600
1F7C00
1E7C00
CEB700
EF3600
776480
3F6480
0BB480
33B600
19F700
D9F700
37C980
158580
0A9D80
0EBB80
003F00
ENDCHAR
STARTCHAR 160
ENCODING 160
SWIDTH 1224 0
DWIDTH 17 0
BBX 16 20 1 -2
BITMAP
03E0
03E0
03A0
E3E3
E3E3
E3E3
0000
77EF
77EF
77EF
07E0
07E0
07E0
0000
0C0C
0C0C
0000
000F
3C0F
3C0F
ENDCHAR
STARTCHAR 161
ENCODING 161
SWIDTH 1224 0
DWIDTH 17 0
BBX 17 22 0 -3
BITMAP
000100
61C300
33E200
3AB600
1DEE00
1D2800
0FF600
3FF600
FDBF00
FDB780
CDB380
CDB380
E43300
EFF700
07F700
2FF000
1E3800
1C1C00
141400
1C1400
3C1E00
641B00
ENDCHAR
STARTCHAR 162
ENCODING 162
SWIDTH 1224 0
DWIDTH 17 0
BBX 17 25 0 -5
BITMAP
00F800
09DF00
1B2F00
1EDF80
3BF380
F06380
F0F780
F8D780
FCF780
7E6F00
3F9F00
0FFE00
07FC00
07FC00
07FC00
0FFC00
1FFE00
7FFF80
7E0F80
380F80
380780
0C0600
0C1C00
181C00
381F00
ENDCHAR
STARTCHAR 163
ENCODING 163
SWIDTH 1224 0
DWIDTH 17 0
BBX 16 24 1 -5
BITMAP
0030
0039
0019
000D
000F
000F
000F
0007
000F
000F
000F
380F
7E3F
FFFF
FFFF
FFFF
DFFE
FFFE
F9FC
FBF8
DBF0
27E0
3F80
1F00
ENDCHAR
STARTCHAR 164
ENCODING 164
SWIDTH 1224 0
DWIDTH 17 0
BBX 17 23 0 -4
BITMAP
770000
FF8000
EF8000
C50000
0E8000
1F0000
1B6000
20F000
6FF800
679980
C10F80
C78400
7D0000
058000
0BC000
1FC000
3FE000
3FF000
7FF000
FFF000
107800
380000
703800
ENDCHAR
STARTCHAR 165
ENCODING 165
SWIDTH 1224 0
DWIDTH 17 0
BBX 17 22 0 -3
BITMAP
01C000
022000
01C000
000000
19C400
39E600
392F00
7DEF00
7B3780
F9E780
FDEF80
FDEF80
F6DB80
F61B80
E5EB80
EFEB80
6BF780
67F180
47F080
437880
073800
073800
ENDCHAR
STARTCHAR 166
ENCODING 166
SWIDTH 1224 0
DWIDTH 17 0
BBX 17 24 0 -5
BITMAP
000780
006F00
00DF00
01BE00
07BF80
07FF80
07FF00
077F00
06FE00
04E780
05FF80
056E00
3BFC00
57FE00
FBA800
AFC000
0FE000
07F000
07F800
03FE00
08FE80
10FF00
133A00
128400
ENDCHAR
STARTCHAR 167
ENCODING 167
SWIDTH 1224 0
DWIDTH 17 0
BBX 17 17 0 -2
BITMAP
C40000
7C0000
D40000
FC0000
460180
578380
7FF880
7FFC80
7FFF80
3FFF00
3FFE00
1FFF00
1B8F80
198F80
198980
198980
3B8000
ENDCHAR
STARTCHAR 168
ENCODING 168
SWIDTH 1224 0
DWIDTH 17 0
BBX 17 23 0 -5
BITMAP
018000
074000
07E600
03EF00
00CE00
E0DD00
B1DC00
39F900
7DFA80
DFFB80
1FF780
0FE700
07CE00
07FE00
07FC00
01F800
01F800
00F800
007800
1FFB80
3FFF80
3FFF80
1DE780
ENDCHAR
STARTCHAR 169
ENCODING 169
SWIDTH 1224 0
DWIDTH 17 0
BBX 17 22 0 -4
BITMAP
080400
380700
340B00
B40B00
B61B00
B73B00
BBF700
7AD780
9FFE00
EEDD80
F12380
FBF780
C7F880
33F300
E8C580
1BF600
1BF600
1FFE00
0BF400
180600
361B00
212100
ENDCHAR
STARTCHAR 170
ENCODING 170
SWIDTH 1224 0
DWIDTH 17 0
BBX 17 25 0 -5
BITMAP
406000
A09080
51A900
AD0A80
53DD00
01FC80
02F000
016800
02D000
02D000
052800
02D400
340980
09F600
07FC00
17F900
1DF700
264D00
17FA00
2BFD00
13FA00
10E200
01F000
015000
01F000
ENDCHAR
STARTCHAR 171
ENCODING 171
SWIDTH 1224 0
DWIDTH 17 0
BBX 17 19 0 -2
BITMAP
000100
380200
040400
820800
820800
47F800
467980
3C1E00
040800
088400
788C00
480C00
8C1800
8C3E00
03F800
080400
080200
300300
000100
ENDCHAR
STARTCHAR 172
ENCODING 172
SWIDTH 1224 0
DWIDTH 17 0
BBX 14 22 2 -5
BITMAP
01F8
060C
1A1C
1434
19CC
063C
01FC
027C
03F8
09F0
01F0
05E0
0BE0
01C0
1380
0F00
1E00
2E00
1000
2000
4000
8000
ENDCHAR
STARTCHAR 173
ENCODING 173
SWIDTH 1224 0
DWIDTH 17 0
BBX 17 15 0 -4
BITMAP
000300
000380
100180
120080
7E0080
6E0080
7F3C80
7FFF80
7FFF80
7FFF80
3FFF80
7FBF80
C61D80
8C3980
180300
ENDCHAR
STARTCHAR 174
ENCODING 174
SWIDTH 1224 0
DWIDTH 17 0
BBX 17 21 0 -5
BITMAP
001C00
006100
004080
009280
019280
060080
0C0080
1A1880
241980
3A1980
A20380
440280
080500
1A1600
201B00
2D3200
DEA500
416400
4CC000
180000
288000
ENDCHAR
STARTCHAR 175
ENCODING 175
SWIDTH 1224 0
DWIDTH 17 0
BBX 17 19 0 -5
BITMAP
007000
01F880
03E880
00C880
00C880
07F880
079080
1FB080
1FA680
3F8D80
3FC680
7FC080
7FF580
FFB200
FF9980
FF0800
F80800
000000
0C0600
ENDCHAR
STARTCHAR 176
ENCODING 176
SWIDTH 1224 0
DWIDTH 17 0
BBX 10 19 5 -4
BITMAP
7000
F800
A800
F800
7E00
3F00
1F00
1F00
1C80
3C80
2C40
4C40
8C00
0C00
1400
1400
1400
1400
1400
ENDCHAR
STARTCHAR 177
ENCODING 177
SWIDTH 1224 0
DWIDTH 17 0
BBX 16 24 1 -4
BITMAP
0001
000B
000F
000F
018F
024C
024C
0184
0244
0666
3BDE
67E6
EB9F
EA5F
E5A6
EA50
E5A0
F5A0
7FF0
7FF0
0FF0
0E70
1E78
1E78
ENDCHAR
STARTCHAR 178
ENCODING 178
SWIDTH 1224 0
DWIDTH 17 0
BBX 15 22 2 -4
BITMAP
0002
1302
0E04
0608
0710
0D90
1B00
1F60
1340
1280
1A40
0C80
1F80
1F80
1F80
1980
10C0
30C0
30C0
20C0
60E0
E0E0
ENDCHAR
STARTCHAR 179
ENCODING 179
SWIDTH 1224 0
DWIDTH 17 0
BBX 17 24 0 -4
BITMAP
080200
080200
080200
060E00
06EC00
015800
015000
05E600
06E400
790780
780780
FA0180
E39980
72F300
710B00
710B00
00F000
070E00
0F0F00
0E0700
0C0700
180380
300080
700080
ENDCHAR
STARTCHAR 180
ENCODING 180
SWIDTH 1224 0
DWIDTH 17 0
BBX 16 23 1 -5
BITMAP
0060
0060
0002
0000
000F
030F
079F
7FF3
7FFF
3FCF
3F8F
7F3C
EE7C
ECFE
E0FE
7FF0
3FF0
3FF0
7EF0
3C00
1800
0010
8000
ENDCHAR
STARTCHAR 181
ENCODING 181
SWIDTH 1224 0
DWIDTH 17 0
BBX 17 16 0 -1
BITMAP
3FC000
7FF880
7BFF80
FBFF00
780000
7C0F00
3FFF80
1FFF80
078380
000180
000380
0FFF80
7FFF80
DF1F00
FC0000
700000
ENDCHAR
STARTCHAR 182
ENCODING 182
SWIDTH 1224 0
DWIDTH 17 0
BBX 16 21 1 -3
BITMAP
E0A8
E0F8
A070
E088
4050
4020
40A8
4353
4DAB
4953
51A8
D150
41A8
4354
468E
470C
4002
4606
4002
4E07
4C07
ENDCHAR
STARTCHAR 183
ENCODING 183
SWIDTH 1224 0
DWIDTH 17 0
BBX 17 25 0 -5
BITMAP
040800
421000
212700
17C800
09F000
3B3E00
47F100
8DC800
158600
2A7100
0FF000
1FF400
5BC680
39C380
F2C100
214000
026000
07F000
0FF800
0FF800
0FF800
3FF800
38FC00
003C00
0C0000
ENDCHAR
STARTCHAR 184
ENCODING 184
SWIDTH 1224 0
DWIDTH 17 0
BBX 14 16 2 -1
BITMAP
4718
68D8
68D8
3720
5FF8
AFC4
ACC4
5FF8
ACC4
AFC4
5FF8
38E0
68D8
68D8
4718
8004
ENDCHAR
STARTCHAR 185
ENCODING 185
SWIDTH 1224 0
DWIDTH 17 0
BBX 17 24 0 -5
BITMAP
011000
031800
011000
C0E000
20E000
10E000
0DB700
191280
3E0B00
3FFE80
7BF580
7BE880
C33180
FD6980
F95D80
7C9600
072D00
0F0E00
080E00
080600
080200
0C0600
1C0700
380780
ENDCHAR
STARTCHAR 186
ENCODING 186
SWIDTH 1224 0
DWIDTH 17 0
BBX 17 23 0 -4
BITMAP
000100
000280
000280
000280
03E100
032300
02E200
023B00
0F4D00
198B00
209300
241100
467700
B9F100
818900
860900
080500
100500
300500
33E700
F7FF00
7FF900
1E7800
ENDCHAR
STARTCHAR 187
ENCODING 187
SWIDTH 1224 0
DWIDTH 17 0
BBX 16 21 0 -4
BITMAP
0020
0070
00F8
01B8
0388
07FC
87FE
47FF
27FF
37FB
1CFE
09FC
03F8
03FC
03FC
03FC
07FC
07FE
0606
0607
0403
ENDCHAR
STARTCHAR 188
ENCODING 188
SWIDTH 1224 0
DWIDTH 17 0
BBX 17 22 0 -5
BITMAP
C18000
C3C000
13C000
05C000
158000
1E1000
3FBF80
773F80
663F80
00BF80
36A780
05D780
04D780
036F00
6D6600
519800
182400
181A00
380000
403800
781C00
F00E00
ENDCHAR
STARTCHAR 189
ENCODING 189
SWIDTH 1224 0
DWIDTH 17 0
BBX 17 25 0 -5
BITMAP
106400
106400
1AFB00
1AFB00
6FDF00
7F9B00
7F9B00
7C0700
7C0700
780700
EE1900
EE1900
7F1C80
1E1C80
1E1C80
0C1C80
0C1C80
1C8500
09C100
09C000
175A00
122000
122000
622300
622300
ENDCHAR
STARTCHAR 190
ENCODING 190
SWIDTH 1224 0
DWIDTH 17 0
BBX 17 25 0 -5
BITMAP
00FC00
00FC00
009400
00FC00
1BFC00
383C00
393F00
704B00
F32F80
F3D780
C00380
C5C380
A57380
F27180
74B180
0B3900
003880
1A8800
39CE00
3B2E00
FAEF80
F88F80
F80F80
380000
380000
ENDCHAR
STARTCHAR 191
ENCODING 191
SWIDTH 1224 0
DWIDTH 17 0
BBX 17 23 0 -4
BITMAP
000080
000180
000780
000580
003F80
000F00
001E00
07FF80
1FF800
7FF800
7FF800
FFF800
FFFC00
FFFE00
FFFE00
FFEF00
EFE280
E57000
E47000
E47800
F60000
720000
300000
ENDCHAR
STARTCHAR 192
ENCODING 192
SWIDTH 1224 0
DWIDTH 17 0
BBX 16 20 1 -2
BITMAP
01F0
00E0
03F8
E3EC
E3EC
73E0
71E3
71FC
33F8
37FF
3FF1
0FC0
07C0
07C0
0FC0
0C80
0C80
0CC0
0660
0100
ENDCHAR
STARTCHAR 193
ENCODING 193
SWIDTH 1224 0
DWIDTH 17 0
BBX 17 19 0 -4
BITMAP
07FE00
3FFF80
3F8780
FC7980
FFFC80
F7FC80
FE0D80
F60D80
EE4E80
EE6C80
EE3D80
E7ED80
3FFB80
387B80
3FDB80
3FF980
07FB80
000180
000080
ENDCHAR
STARTCHAR 194
ENCODING 194
SWIDTH 1224 0
DWIDTH 17 0
BBX 16 12 0 -5
BITMAP
38FC
6FFE
FFFE
3FFF
0FFF
03FF
017F
023B
0021
0001
0001
0001
ENDCHAR
STARTCHAR 195
ENCODING 195
SWIDTH 1224 0
DWIDTH 17 0
BBX 17 25 0 -5
BITMAP
030000
0F9800
1FCC00
3E6600
7FE700
F7E380
DBE380
6FF380
BFF980
FDF980
F3F980
03FB80
07FB80
4DFB80
3DFF80
49FF00
21FF00
01FF00
03BE00
039C00
039C00
039800
031800
073000
073000
ENDCHAR
STARTCHAR 196
ENCODING 196
SWIDTH 1224 0
DWIDTH 17 0
BBX 13 24 4 -5
BITMAP
1C00
7E00
F700
FF80
3F80
FF80
0FC0
3FD8
7FC8
4FC8
1FC8
3FD8
2FF8
0FF8
0FF8
0FF8
1FE0
3FE0
3FC0
3FC0
18C0
1840
3840
78C0
ENDCHAR
STARTCHAR 197
ENCODING 197
SWIDTH 1224 0
DWIDTH 17 0
BBX 17 24 0 -5
BITMAP
02A000
01C000
000000
494400
200280
E9C500
300280
A49300
1A2180
05D280
022200
05D600
022000
01C000
063000
012000
01E000
012000
012000
033000
012000
012000
033000
021800
ENDCHAR
STARTCHAR 198
ENCODING 198
SWIDTH 1224 0
DWIDTH 17 0
BBX 17 24 0 -5
BITMAP
030000
038000
01C000
38E000
6E2000
472000
01AF00
79FF80
F7FF80
C3DF80
81F780
0FDF00
3BDF80
737F80
71AB80
E1F480
C1B600
C19600
019E00
019A00
019B00
019B00
019B00
011B00
ENDCHAR
STARTCHAR 199
ENCODING 199
SWIDTH 1224 0
DWIDTH 17 0
BBX 17 21 0 -3
BITMAP
00E000
01F000
015800
0CF700
069400
069300
1F6B00
7FFF80
FF1B80
E7B980
E7B980
73B980
77FB80
01F380
17F800
0F1C00
0E0E00
0A0A00
0E0A00
1E0F00
320D80
ENDCHAR
STARTCHAR 200
ENCODING 200
SWIDTH 1224 0
DWIDTH 17 0
BBX 14 15 2 -4
BITMAP
3FE0
77A0
F330
D870
D878
EB7C
E01C
EB5C
F87C
F83C
F83C
703C
2318
3FF0
1FE0
ENDCHAR
STARTCHAR 201
ENCODING 201
SWIDTH 1224 0
DWIDTH 17 0
BBX 17 23 0 -5
BITMAP
112200
312300
392700
473880
87F880
CB3480
D8C080
92C780
951300
A2AD80
AD0580
E92680
20DE80
1AE000
090800
060800
078C00
070400
060E00
020C00
051000
039800
019800
ENDCHAR
STARTCHAR 202
ENCODING 202
SWIDTH 1224 0
DWIDTH 17 0
BBX 17 22 0 -4
BITMAP
003800
00D800
007800
007800
007F80
E0FE80
3C7E00
04D380
05F980
05E000
07F000
07F800
07B800
03F800
03C400
007700
006380
004000
004000
018000
018000
018000
ENDCHAR
STARTCHAR 203
ENCODING 203
SWIDTH 1224 0
DWIDTH 17 0
BBX 16 24 1 -5
BITMAP
0180
0240
0520
0810
2A94
510A
2004
1388
1288
2280
5008
5818
2088
1088
1108
1348
1008
1008
1008
300C
7666
FC3F
F00F
0E70
ENDCHAR
STARTCHAR 204
ENCODING 204
SWIDTH 1224 0
DWIDTH 17 0
BBX 17 23 0 -5
BITMAP
007800
00F800
01F800
073800
061800
061800
060800
1FFE00
3FFF00
7FFF80
79F980
E3F880
C3F880
C3F800
87F800
07FC00
07FE00
07FE00
0FFE00
1FFE00
3FFE00
01FE00
007E00
ENDCHAR
STARTCHAR 205
ENCODING 205
SWIDTH 1224 0
DWIDTH 17 0
BBX 16 25 1 -5
BITMAP
0002
0A83
0A86
0F83
0006
0A86
0F83
0586
17C3
38B3
3DB6
7FF3
7FF6
FF5B
FFCE
FECC
FDC2
A3E6
DDE0
EFE0
FFE0
FFE0
30E0
38F0
3CF0
ENDCHAR
STARTCHAR 206
ENCODING 206
SWIDTH 1224 0
DWIDTH 17 0
BBX 17 25 0 -5
BITMAP
078000
0B4C00
0F7F80
0FDF80
086E80
187580
0DFB80
0DFB80
08FB80
0C7B80
0C7B80
087F00
0E7F80
0E7F80
0E7380
1D7B00
3A7380
F0D180
F9E980
F1E080
E98080
A98080
518080
03C180
038180
ENDCHAR
STARTCHAR 207
ENCODING 207
SWIDTH 1224 0
DWIDTH 17 0
BBX 17 16 0 1
BITMAP
180000
1F0000
0F8000
00C000
077000
FFF800
FFFF80
0FFF80
FFFF80
FFFF80
1FFF80
7BFF80
F39F80
C70780
1C0000
380000
ENDCHAR
STARTCHAR 208
ENCODING 208
SWIDTH 1224 0
DWIDTH 17 0
BBX 17 24 0 -5
BITMAP
007000
01D000
016000
00D000
21E000
A8A000
70A100
25F180
CB6C80
68D500
01A000
03F000
02A000
01F000
035800
00B000
073000
012000
071000
012000
023000
012000
073800
0E1C00
ENDCHAR
STARTCHAR 209
ENCODING 209
SWIDTH 1224 0
DWIDTH 17 0
BBX 17 21 0 -4
BITMAP
FFF800
39FC00
1DFE00
0F9F00
078F80
078780
078780
FF8780
7F8780
1D8780
0F8780
078780
078780
078780
FF8780
7F8780
398F80
0FFF00
07FE00
07FC00
07F800
ENDCHAR
STARTCHAR 210
ENCODING 210
SWIDTH 1224 0
DWIDTH 17 0
BBX 17 24 0 -5
BITMAP
FFF000
7FF800
3FFC00
1CFE00
019F00
078F80
FF8780
7F8780
188780
098780
078780
078780
7C8780
388780
198780
0F8780
078780
FC8780
788F80
399F00
0FFE00
07FC00
07F800
07F000
ENDCHAR
STARTCHAR 211
ENCODING 211
SWIDTH 1224 0
DWIDTH 17 0
BBX 14 20 2 -2
BITMAP
FFC0
7FE0
3FF0
3838
381C
381C
3B5C
381C
381C
381C
381C
399C
381C
381C
383C
3FF8
7FF0
FFF0
36D8
EC6C
ENDCHAR
STARTCHAR 212
ENCODING 212
SWIDTH 1224 0
DWIDTH 17 0
BBX 17 23 0 -5
BITMAP
0FF800
3FFC00
7FFE00
FE0F00
EE0780
CE0780
CEB780
8EB780
8E0780
0E0780
0E0780
0E6780
0E6780
0E0780
0E0F00
3FFE00
7FFE00
FFFC00
1B3700
3B0980
771980
E63B00
E46200
ENDCHAR
STARTCHAR 213
ENCODING 213
SWIDTH 1224 0
DWIDTH 17 0
BBX 17 17 0 -1
BITMAP
FFF000
3FF800
1FFE00
180F00
180780
F84780
384780
384780
184780
184780
F9F780
38E780
384780
180F80
13FF00
2FFE00
2FFE00
ENDCHAR
STARTCHAR 214
ENCODING 214
SWIDTH 1224 0
DWIDTH 17 0
BBX 15 19 1 -5
BITMAP
0080
01C0
03E0
07F0
0E38
1E1C
3C1E
7E1C
FE38
E7F0
63E0
30C0
380C
1C18
1E38
0FF0
07E0
03C0
0180
ENDCHAR
STARTCHAR 215
ENCODING 215
SWIDTH 1224 0
DWIDTH 17 0
BBX 12 21 3 -4
BITMAP
1680
2940
3FC0
FFE0
FFE0
C030
C000
C000
C000
CD00
FFC0
F3C0
C180
C100
C000
C030
FFE0
FFE0
3FC0
2940
1680
ENDCHAR
STARTCHAR 216
ENCODING 216
SWIDTH 1224 0
DWIDTH 17 0
BBX 14 22 2 -5
BITMAP
0300
0380
0FC0
1FE0
3CF0
7C78
F03C
783C
3C78
1CF0
0FC0
07F8
03F8
07E0
0CC0
1CC0
1CC0
19C0
1BC0
1F80
1F00
0400
ENDCHAR
STARTCHAR 217
ENCODING 217
SWIDTH 1224 0
DWIDTH 17 0
BBX 14 18 2 -1
BITMAP
07CC
1FFC
3FFC
3E1C
780C
700C
7000
E000
E010
E030
E078
E0FC
E1FC
701C
7C1C
3E3C
1FF8
07F0
ENDCHAR
STARTCHAR 218
ENCODING 218
SWIDTH 1224 0
DWIDTH 17 0
BBX 13 17 3 -1
BITMAP
2000
2000
6000
E180
E180
6000
6000
6000
6000
6700
7F80
7F80
7F80
6388
6398
63F8
63F8
ENDCHAR
STARTCHAR 219
ENCODING 219
SWIDTH 1224 0
DWIDTH 17 0
BBX 12 18 3 -1
BITMAP
0080
21C0
2280
6280
E380
E0C0
60A0
62A0
61C0
6080
6000
7F00
7F00
7F80
6380
6380
6390
63F0
ENDCHAR
STARTCHAR 220
ENCODING 220
SWIDTH 1224 0
DWIDTH 17 0
BBX 15 22 1 -4
BITMAP
0100
0E02
0E0E
7818
F838
3838
381C
180C
180C
381C
3FFC
3E78
3818
181C
180C
380C
380C
781C
7C3E
381C
1008
1008
ENDCHAR
STARTCHAR 221
ENCODING 221
SWIDTH 1224 0
DWIDTH 17 0
BBX 16 21 1 -5
BITMAP
0008
0018
006E
001E
0018
0000
0000
0010
0000
0010
0070
0095
001A
0010
3014
F018
C816
ACF0
6CF0
0FE0
0780
ENDCHAR
STARTCHAR 222
ENCODING 222
SWIDTH 1224 0
DWIDTH 17 0
BBX 17 19 0 -2
BITMAP
00FF80
00FF80
007F00
003E00
001C00
001400
001400
001C00
001400
001C00
001C00
FF1400
FE1C00
7C1400
383400
387C00
1C7C00
1FF800
07F000
ENDCHAR
STARTCHAR 223
ENCODING 223
SWIDTH 1224 0
DWIDTH 17 0
BBX 15 20 1 -3
BITMAP
FF00
6700
1700
0900
0500
0D00
0700
0900
0D00
0500
0B00
0500
0B02
0B06
0B0E
0B3A
05F6
1A5A
3FFE
3FFE
ENDCHAR
STARTCHAR 224
ENCODING 224
SWIDTH 1224 0
DWIDTH 17 0
BBX 17 21 0 -4
BITMAP
FFF800
7FF000
1FC000
0F8000
0F8000
0F8000
0F8000
0F8000
0F8000
0F8000
0F8000
0F8000
0F8080
0F8180
0F8780
0F8780
0FFF80
0FFF80
3FFF80
7FFF80
FFFF80
ENDCHAR
STARTCHAR 225
ENCODING 225
SWIDTH 1224 0
DWIDTH 17 0
BBX 13 15 1 -5
BITMAP
FFE0
7FF0
3FF0
1C18
1C18
1C18
1C30
1FE0
1800
1800
1800
1800
1800
1000
1000
ENDCHAR
STARTCHAR 226
ENCODING 226
SWIDTH 1224 0
DWIDTH 17 0
BBX 15 17 1 -5
BITMAP
FFF0
3FFC
1F0C
0F0E
0F0E
FF0E
7F0E
3F0E
1FFC
0EF0
0E00
0E00
0E00
0E00
0C00
0800
0800
ENDCHAR
STARTCHAR 227
ENCODING 227
SWIDTH 1224 0
DWIDTH 17 0
BBX 16 17 0 -5
BITMAP
FFF8
3BFC
1B0F
0F0F
0F0F
730F
3B0F
1B0F
0FFF
FFF8
7378
3B00
1B00
0F00
0F00
0F00
0F00
ENDCHAR
STARTCHAR 228
ENCODING 228
SWIDTH 1224 0
DWIDTH 17 0
BBX 13 21 2 -5
BITMAP
0200
0000
4210
0000
0240
FFE0
7FF0
BFF0
5C38
1C38
1C38
1C30
1FE0
1820
1BC0
1A00
1A00
1A00
1A00
1400
0800
ENDCHAR
STARTCHAR 229
ENCODING 229
SWIDTH 1224 0
DWIDTH 17 0
BBX 16 22 0 -5
BITMAP
0701
0F87
187C
3078
2000
0000
FFFC
FFFE
3FFF
0F0F
0F0F
FF0F
FF0F
3F0F
0FFF
0FFF
FFFE
3F7C
0F00
0F00
0F00
0F00
ENDCHAR
STARTCHAR 230
ENCODING 230
SWIDTH 1224 0
DWIDTH 17 0
BBX 13 20 1 -5
BITMAP
1FF0
1FF0
1FF0
0000
0000
0000
FFE0
7FF0
1C38
1C18
1C18
1C18
1FF0
1FC0
1800
1800
1800
1800
1000
1000
ENDCHAR
STARTCHAR 231
ENCODING 231
SWIDTH 1224 0
DWIDTH 17 0
BBX 15 21 1 -5
BITMAP
1FF0
1FF0
0000
0000
FFF0
3FFC
1F0C
0F0E
0F0E
FF0E
7F0E
3F0E
1FFC
0EF0
0E00
0E00
0E00
0E00
0C00
0800
0800
ENDCHAR
STARTCHAR 232
ENCODING 232
SWIDTH 1224 0
DWIDTH 17 0
BBX 17 20 0 -3
BITMAP
FFF800
FFF800
FFFC00
EFFC00
CE1E00
8E0E00
0E0700
0E0780
0E0780
0FFF80
0FFF80
0FFF80
0E0000
0E0000
0E0000
0E0000
0E0000
1E0000
7E0000
FE0000
ENDCHAR
STARTCHAR 233
ENCODING 233
SWIDTH 1224 0
DWIDTH 17 0
BBX 14 18 3 -5
BITMAP
0040
00C0
01C0
1FC0
3FC0
7FC0
F0C0
E040
E040
F0C0
FFC0
7FC0
3E40
0040
004C
0058
0070
0060
ENDCHAR
STARTCHAR 234
ENCODING 234
SWIDTH 1224 0
DWIDTH 17 0
BBX 16 24 1 -5
BITMAP
8000
C000
E000
F000
FFF0
7FF8
7FFC
7E3C
781E
F00E
F00E
F007
F007
F007
F007
F007
F0E7
707E
707E
3C1C
1FFE
0FFF
07E3
0001
ENDCHAR
STARTCHAR 235
ENCODING 235
SWIDTH 1224 0
DWIDTH 17 0
BBX 16 24 1 -5
BITMAP
8002
C006
E00E
F01E
FFFE
7FFC
7FFC
7E3C
781E
F00E
F00E
F007
F007
F007
F007
F007
F0E7
707E
707E
3C1C
1FFE
0FFF
07E3
0001
ENDCHAR
STARTCHAR 236
ENCODING 236
SWIDTH 1224 0
DWIDTH 17 0
BBX 16 20 0 -3
BITMAP
C1C0
77F0
3FF8
3C1C
1C0C
0C04
0C0C
0C1C
0FF8
0FF8
0FE0
0DF0
0CF8
0C78
0C38
081C
080C
0806
0803
0801
ENDCHAR
STARTCHAR 237
ENCODING 237
SWIDTH 1224 0
DWIDTH 17 0
BBX 17 16 0 -5
BITMAP
02D200
01FC80
07FF00
03FF00
070700
1F8000
07F000
03F800
003C00
301800
F83C00
3FF800
3FE800
16C000
223000
080000
ENDCHAR
STARTCHAR 238
ENCODING 238
SWIDTH 1224 0
DWIDTH 17 0
BBX 16 19 1 -3
BITMAP
00F0
07FC
0FFC
0FFF
1F0F
180E
180C
1C08
0F00
07F0
03F8
007C
000C
700C
F81C
FFFC
FFF8
8FF0
8FC0
ENDCHAR
STARTCHAR 239
ENCODING 239
SWIDTH 1224 0
DWIDTH 17 0
BBX 14 14 2 -2
BITMAP
1020
1020
3030
3030
7038
E01C
E01C
E01C
F03C
F87C
7FF8
7FF8
3FF0
0FC0
ENDCHAR
STARTCHAR 240
ENCODING 240
SWIDTH 1224 0
DWIDTH 17 0
BBX 14 25 3 -5
BITMAP
8000
8000
8000
C000
C000
C000
C0FC
C07C
C038
E038
E038
E038
E038
E038
E038
E038
E038
E038
E038
E038
E038
7FF0
7FE0
3FC0
1FC0
ENDCHAR
STARTCHAR 241
ENCODING 241
SWIDTH 1224 0
DWIDTH 17 0
BBX 13 25 3 -5
BITMAP
8008
8008
8008
C018
C018
C038
C038
C038
E038
E038
E038
E038
E038
EDB8
EDB8
E038
E038
E038
E038
E038
E038
7070
3FE0
3FC0
1FC0
ENDCHAR
STARTCHAR 242
ENCODING 242
SWIDTH 1224 0
DWIDTH 17 0
BBX 16 25 1 -5
BITMAP
8001
8001
CC33
CC33
C663
E247
F00F
F18F
F18F
F18F
F00F
F00F
F00F
F00F
F00F
F00F
F00F
F00F
F81F
781E
7C3E
1FFC
0FF8
0FF0
07F0
ENDCHAR
STARTCHAR 243
ENCODING 243
SWIDTH 1224 0
DWIDTH 17 0
BBX 16 14 1 -3
BITMAP
F00F
F00F
700E
381C
1818
BC3D
0C30
5E7A
2FF4
07E0
1FF8
03C0
0180
03C0
ENDCHAR
STARTCHAR 244
ENCODING 244
SWIDTH 1224 0
DWIDTH 17 0
BBX 16 19 1 -3
BITMAP
6828
1038
0010
0000
0280
E107
F00F
700E
300C
1818
BC3D
0C30
5E7A
2FF4
07E0
1FF8
03C0
0180
03C0
ENDCHAR
STARTCHAR 245
ENCODING 245
SWIDTH 1224 0
DWIDTH 17 0
BBX 16 20 1 -3
BITMAP
0FF0
0FF0
0FF0
0000
0000
0000
F00F
F00F
700E
300C
1818
BC3D
0C30
5E7A
2FF4
07E0
1FF8
03C0
0180
03C0
ENDCHAR
STARTCHAR 246
ENCODING 246
SWIDTH 1224 0
DWIDTH 17 0
BBX 17 15 0 -1
BITMAP
200000
540000
540000
FE0F80
7C0780
380700
180700
180600
084600
0CE600
0CE600
07BC00
07B800
071800
020800
ENDCHAR
STARTCHAR 247
ENCODING 247
SWIDTH 1224 0
DWIDTH 17 0
BBX 16 25 1 -5
BITMAP
8000
8000
8000
C000
C000
C000
E000
E000
E001
F001
F000
F005
F002
F002
F007
F007
7187
77EF
7FFF
7FFF
7E7E
781E
700E
700E
600E
ENDCHAR
STARTCHAR 248
ENCODING 248
SWIDTH 1224 0
DWIDTH 17 0
BBX 16 23 1 -5
BITMAP
0070
0070
8001
8E01
C0E3
C0E3
E007
E007
E007
E007
F00F
F00F
F00E
F00E
718E
77EE
7FFE
7FFE
7E7E
381C
300C
300C
2004
ENDCHAR
STARTCHAR 249
ENCODING 249
SWIDTH 1224 0
DWIDTH 17 0
BBX 16 25 1 -5
BITMAP
8001
8001
8001
8001
C003
C003
E007
E007
E007
F00F
F00F
F00F
F18F
F18F
F18F
F18F
F3CF
F7EF
FFFF
FE7F
FC3F
F00F
F00F
F00F
E007
ENDCHAR
STARTCHAR 250
ENCODING 250
SWIDTH 1224 0
DWIDTH 17 0
BBX 16 12 1 -1
BITMAP
3FFE
7FFC
F038
E070
80E0
01C0
0380
0700
0E03
1FFF
3FFE
7FFC
ENDCHAR
STARTCHAR 251
ENCODING 251
SWIDTH 1224 0
DWIDTH 17 0
BBX 12 17 3 -1
BITMAP
FFF0
FFF0
C030
C030
C030
00E0
01C0
03C0
0380
0E00
1C00
3C00
3830
F030
F030
FFF0
FFF0
ENDCHAR
STARTCHAR 252
ENCODING 252
SWIDTH 1224 0
DWIDTH 17 0
BBX 17 21 0 -5
BITMAP
0FFF00
0FFF00
0C0700
0C0700
FF8700
3F0E00
1E1C00
0C3800
007800
00E000
01C000
038000
078000
0F0000
0F0000
0FFF00
0FFF00
000300
000300
000780
000780
ENDCHAR
STARTCHAR 253
ENCODING 253
SWIDTH 1224 0
DWIDTH 17 0
BBX 12 21 3 -4
BITMAP
FFF0
E4D0
DB30
B270
FFF0
0060
01F0
03B0
0360
06C0
1F80
3B00
3600
6C00
F800
B000
7FF0
E4D0
DB30
B270
FFF0
ENDCHAR
STARTCHAR 254
ENCODING 254
SWIDTH 1224 0
DWIDTH 17 0
BBX 17 21 0 -4
BITMAP
FFFF80
7FFF80
1FFF80
0FFF80
07FF80
000F80
003F00
007E00
007C00
00F800
03F000
07E000
07C000
0F8000
3F0000
7E0000
7FF800
7FFC00
7FFF00
7FFF80
7FFF80
ENDCHAR
STARTCHAR 255
ENCODING 255
SWIDTH 1224 0
DWIDTH 17 0
BBX 16 20 1 -5
BITMAP
787C
FCFE
FFFE
EFEE
000C
001C
0038
0070
00E0
01C0
0380
0700
0E00
1C00
3800
70E0
FFF3
FFFE
7E0C
3000
ENDCHAR
ENDFONT
